<?xml version="1.0" encoding="UTF-8" standalone="no"?>
<!DOCTYPE svg PUBLIC "-//W3C//DTD SVG 1.1//EN" "http://www.w3.org/Graphics/SVG/1.1/DTD/svg11.dtd">
<svg width="100%" height="100%" viewBox="0 0 1423 830" version="1.1" xmlns="http://www.w3.org/2000/svg" xmlns:xlink="http://www.w3.org/1999/xlink" xml:space="preserve" xmlns:serif="http://www.serif.com/" style="fill-rule:evenodd;clip-rule:evenodd;stroke-linecap:round;stroke-linejoin:round;stroke-miterlimit:1.5;">
    <g transform="matrix(1,0,0,1,-1635.06,-532.029)">
        <g transform="matrix(1,0,0,1,86.3444,53.371)">
            <g transform="matrix(0.714062,0,0,0.615452,637.926,340.4)">
                <path d="M1282.51,634.719L1282.51,593.832L1897.66,593.832L1897.66,555.865L1948.01,614.276L1897.66,672.686L1897.66,634.719L1282.51,634.719Z" style="fill:rgb(230,74,55);stroke:rgb(230,74,55);stroke-width:15px;"/>
            </g>
        </g>
        <g transform="matrix(1,0,0,1,86.3444,53.371)">
            <g transform="matrix(0.401154,0,0,0.598969,1088.16,692.788)">
                <path d="M1282.51,634.719L1282.51,593.832L1860.8,593.832L1860.8,555.865L1948.01,614.276L1860.8,672.686L1860.8,634.719L1282.51,634.719Z" style="fill:rgb(243,221,6);stroke:rgb(243,221,6);stroke-width:19.62px;"/>
            </g>
        </g>
        <g transform="matrix(1,0,0,1,86.3444,53.371)">
            <g transform="matrix(0.474385,0,0,0.794481,1039.62,316.762)">
                <path d="M1282.51,634.719L1282.51,593.832L1850.18,593.832L1850.18,555.865L1948.01,614.276L1850.18,672.686L1850.18,634.719L1282.51,634.719Z" style="fill:rgb(21,145,234);stroke:rgb(20,146,234);stroke-width:15.28px;"/>
            </g>
        </g>
        <g transform="matrix(1,0,0,1,86.3444,53.371)">
            <g transform="matrix(0.512536,0,0,0.854999,1067.2,458.479)">
                <path d="M1282.51,634.719L1282.51,593.832L1850.57,593.832L1850.57,555.865L1948.01,614.276L1850.57,672.686L1850.57,634.719L1282.51,634.719Z" style="fill:rgb(0,219,21);stroke:rgb(30,220,21);stroke-width:14.19px;"/>
            </g>
        </g>
        <g transform="matrix(1,0,0,1,86.3444,53.371)">
            <g transform="matrix(0.371767,0,0,0.878999,1476.13,342.453)">
                <path d="M1282.51,634.719C1275.08,620.622 1274.25,606.941 1282.51,593.832L1948.01,593.832L1948.01,634.719L1282.51,634.719Z" style="fill:rgb(255,163,0);stroke:rgb(253,162,2);stroke-width:14.82px;"/>
            </g>
        </g>
        <g transform="matrix(1,0,0,1,86.3444,53.371)">
            <g transform="matrix(0.932935,0,0,1.02039,13.5011,-72.4545)">
                <path d="M2393.07,709.097L2393.07,1162.45L2035.12,1162.45C1974.53,1013.32 1974.17,862.216 2035.12,709.097L2393.07,709.097Z" style="fill:rgb(99,228,255);fill-opacity:0.6;stroke:black;stroke-width:15.34px;"/>
            </g>
        </g>
        <g transform="matrix(1,0,0,1,86.3444,53.371)">
            <g transform="matrix(0.946382,0,0,1,57.5567,-53.371)">
                <path d="M2098.45,1332.01C2134.05,1356.11 2184.73,1366.06 2226.1,1332.01L2351.42,1268.65L2143.13,1309.88L2098.45,1332.01Z" style="fill:rgb(207,132,207);stroke:black;stroke-width:15.41px;"/>
            </g>
        </g>
        <g transform="matrix(1,0,0,1,86.3444,53.371)">
            <g transform="matrix(1.10677e-16,1.90989,-1.18707,7.68053e-17,3394.74,-3027.82)">
                <path d="M2254.82,1138.31L1839.88,1138.31L1962.18,750.595L2132.52,750.595L2254.82,1138.31Z" style="fill:rgb(207,132,207);stroke:black;stroke-width:9.43px;"/>
            </g>
        </g>
        <g transform="matrix(1,0,0,1,86.3444,53.371)">
            <g transform="matrix(0.760023,0,0,0.971789,472.411,-37.9249)">
                <path d="M2098.45,565.511L2116.35,550.73L2131.4,565.754L2146.41,549.621L2154.41,563.621L2164.85,549.294L2177.27,561.67L2194.22,548.869L2201.49,563.89L2226.1,547.513L2226.1,1341.96C2164.68,1357 2115.43,1354.59 2098.45,1341.96L2098.45,565.511Z" style="fill:rgb(237,238,188);stroke:black;stroke-width:17.19px;"/>
            </g>
        </g>
        <g transform="matrix(1,0,0,1,86.3444,53.371)">
            <g transform="matrix(1.10677e-16,1.90989,-1.11733,7.22931e-17,3436.16,-3027.82)">
                <path d="M2254.82,1138.31L1839.88,1138.31L1962.18,750.595L2132.52,750.595L2254.82,1138.31Z" style="fill:rgb(207,132,207);stroke:black;stroke-width:9.59px;"/>
            </g>
        </g>
        <g transform="matrix(1,0,0,1,86.3444,53.371)">
            <g transform="matrix(1.27629,0,0,2.20148,258.73,-1374.4)">
                <path d="M1609.48,926.976C1623.5,926.976 1645.65,970.959 1645.65,1025.13C1645.65,1079.31 1623.5,1123.29 1609.48,1123.29C1595.47,1123.29 1578.35,1079.31 1578.35,1025.13C1578.35,970.959 1595.47,926.976 1609.48,926.976Z" style="stroke:black;stroke-width:8.34px;"/>
            </g>
            <g transform="matrix(0.565482,0,0,0.878999,1581.49,342.453)">
                <path d="M1282.51,634.719C1275.08,620.622 1274.25,606.941 1282.51,593.832L1948.01,593.832L1948.01,634.719L1282.51,634.719Z" style="fill:rgb(255,163,0);stroke:rgb(253,162,2);stroke-width:13.53px;"/>
            </g>
            <g transform="matrix(0.961261,0,0,0.961261,553.563,196.948)">
                <path d="M1839.65,948.885C1922.18,922.54 1991.33,875.505 2056.51,811.232L2188.57,811.232C2194.53,820.154 2203.99,818.171 2209.51,811.232C2238.33,775.019 2232.62,638.219 2209.51,614.92C2201.98,607.323 2193.39,605.269 2187.98,614.92L2056.51,614.92C1987.97,556.114 1925.62,511.133 1839.65,477.266C1765.1,503.112 1756.55,921.133 1839.65,948.885Z" style="fill:rgb(99,228,255);fill-opacity:0.6;stroke:black;stroke-width:15.6px;"/>
            </g>
            <g transform="matrix(0.604738,0,0,0.799753,1687.86,62.5478)">
                <ellipse cx="1620.26" cy="1025.13" rx="25.394" ry="98.156"/>
            </g>
            <g transform="matrix(0.43717,0,0,0.878999,2114.46,342.453)">
                <path d="M1282.51,634.719C1273.93,621.202 1274.05,607.574 1282.51,593.832L1830.57,593.832L1830.57,555.865L1948.01,614.276L1830.57,672.686L1830.57,634.719L1282.51,634.719Z" style="fill:rgb(255,163,0);stroke:rgb(253,162,2);stroke-width:14.41px;"/>
            </g>
        </g>
        <g transform="matrix(1,0,0,1,86.3444,53.371)">
            <g transform="matrix(0.946382,0,0,1,60.4617,-52.8247)">
                <path d="M2145.16,565.242L2145.16,1320.58" style="fill:none;stroke:black;stroke-width:15.41px;"/>
            </g>
        </g>
        <g transform="matrix(1,0,0,1,86.3444,53.371)">
            <g transform="matrix(0.946382,0,0,1,85.65,-52.8247)">
                <path d="M2145.16,565.242L2145.16,1320.58" style="fill:none;stroke:black;stroke-width:15.41px;"/>
            </g>
        </g>
        <g transform="matrix(1,0,0,1,86.3444,53.371)">
            <g transform="matrix(0.946382,0,0,1,110.838,-52.8247)">
                <path d="M2145.16,565.242L2145.16,1320.58" style="fill:none;stroke:black;stroke-width:15.41px;"/>
            </g>
        </g>
    </g>
</svg>
